<mxfile host="app.diagrams.net" modified="2024-06-13T00:00:00.000Z" agent="5.0 (Windows)" version="15.6.5" type="device">
  <diagram id="ZkA1GhDNWi1_gKZjPArE" name="Home Network Diagram">
    <mxGraphModel dx="1784" dy="817" grid="1" gridSize="10" guides="1" tooltips="1" connect="1" arrows="1" fold="1" page="1" pageScale="1" pageWidth="827" pageHeight="1169" math="0" shadow="0">
      <root>
        <mxCell id="0" />
        <mxCell id="1" parent="0" />
        
        <!-- Internet -->
        <mxCell id="internet" value="Internet" style="shape=cloud;whiteSpace=wrap;html=1;" vertex="1" parent="1">
          <mxGeometry x="200" y="20" width="120" height="60" as="geometry" />
        </mxCell>

        <!-- Starlink Antenna -->
        <mxCell id="starlink" value="Starlink Antenna" style="shape=ellipse;whiteSpace=wrap;html=1;" vertex="1" parent="1">
          <mxGeometry x="200" y="100" width="120" height="60" as="geometry" />
        </mxCell>

        <!-- Connection from Internet to Starlink Antenna -->
        <mxCell id="conn1" style="edgeStyle=orthogonalEdgeStyle;rounded=0;orthogonalLoop=1;jettySize=auto;html=1;" edge="1" parent="1" source="internet" target="starlink">
          <mxGeometry relative="1" as="geometry" />
        </mxCell>
        
        <!-- Router -->
        <mxCell id="router" value="Router" style="shape=rectangle;whiteSpace=wrap;html=1;" vertex="1" parent="1">
          <mxGeometry x="200" y="180" width="120" height="60" as="geometry" />
        </mxCell>

        <!-- Connection from Starlink Antenna to Router -->
        <mxCell id="conn2" style="edgeStyle=orthogonalEdgeStyle;rounded=0;orthogonalLoop=1;jettySize=auto;html=1;" edge="1" parent="1" source="starlink" target="router">
          <mxGeometry relative="1" as="geometry" />
        </mxCell>

        <!-- Switch -->
        <mxCell id="switch" value="Switch" style="shape=rectangle;whiteSpace=wrap;html=1;" vertex="1" parent="1">
          <mxGeometry x="200" y="260" width="120" height="60" as="geometry" />
        </mxCell>

        <!-- Connection from Router to Switch -->
        <mxCell id="conn3" style="edgeStyle=orthogonalEdgeStyle;rounded=0;orthogonalLoop=1;jettySize=auto;html=1;" edge="1" parent="1" source="router" target="switch">
          <mxGeometry relative="1" as="geometry" />
        </mxCell>

        <!-- Desktop/Workstation -->
        <mxCell id="desktop" value="Desktop/Workstation" style="shape=rectangle;whiteSpace=wrap;html=1;" vertex="1" parent="1">
          <mxGeometry x="60" y="340" width="120" height="60" as="geometry" />
        </mxCell>

        <!-- Connection from Switch to Desktop -->
        <mxCell id="conn4" style="edgeStyle=orthogonalEdgeStyle;rounded=0;orthogonalLoop=1;jettySize=auto;html=1;" edge="1" parent="1" source="switch" target="desktop">
          <mxGeometry relative="1" as="geometry" />
        </mxCell>

        <!-- Proxmox Node 1 -->
        <mxCell id="node1" value="Proxmox Node 1: devinprox001" style="shape=rectangle;whiteSpace=wrap;html=1;" vertex="1" parent="1">
          <mxGeometry x="200" y="340" width="150" height="100" as="geometry" />
        </mxCell>

        <!-- Connection from Switch to Proxmox Node 1 -->
        <mxCell id="conn5" style="edgeStyle=orthogonalEdgeStyle;rounded=0;orthogonalLoop=1;jettySize=auto;html=1;" edge="1" parent="1" source="switch" target="node1">
          <mxGeometry relative="1" as="geometry" />
        </mxCell>

        <!-- Services on Proxmox Node 1 -->
        <mxCell id="services1" value="100 homeassistant\n103 wazuh\n105 torrent" style="text;html=1;" vertex="1" parent="node1">
          <mxGeometry x="10" y="40" width="130" height="60" as="geometry" />
        </mxCell>

        <!-- Proxmox Node 2 -->
        <mxCell id="node2" value="Proxmox Node 2: devinprox002" style="shape=rectangle;whiteSpace=wrap;html=1;" vertex="1" parent="1">
          <mxGeometry x="370" y="340" width="150" height="100" as="geometry" />
        </mxCell>

        <!-- Connection from Switch to Proxmox Node 2 -->
        <mxCell id="conn6" style="edgeStyle=orthogonalEdgeStyle;rounded=0;orthogonalLoop=1;jettySize=auto;html=1;" edge="1" parent="1" source="switch" target="node2">
          <mxGeometry relative="1" as="geometry" />
        </mxCell>

        <!-- Services on Proxmox Node 2 -->
        <mxCell id="services2" value="101 octoprint\n102 nas001\n106 plex" style="text;html=1;" vertex="1" parent="node2">
          <mxGeometry x="10" y="40" width="130" height="60" as="geometry" />
        </mxCell>

        <!-- TrueNAS NAS -->
        <mxCell id="nas" value="TrueNAS NAS" style="shape=rectangle;whiteSpace=wrap;html=1;" vertex="1" parent="1">
          <mxGeometry x="540" y="340" width="120" height="60" as="geometry" />
        </mxCell>

        <!-- Connection from Switch to TrueNAS NAS -->
        <mxCell id="conn7" style="edgeStyle=orthogonalEdgeStyle;rounded=0;orthogonalLoop=1;jettySize=auto;html=1;" edge="1" parent="1" source="switch" target="nas">
          <mxGeometry relative="1" as="geometry" />
        </mxCell>

        <!-- Space for additional info -->
        <mxCell id="additional" value="Additional Info: \nIP Info\n..." style="text;html=1;" vertex="1" parent="1">
          <mxGeometry x="200" y="480" width="300" height="100" as="geometry" />
        </mxCell>
        
      </root>
    </mxGraphModel>
  </diagram>
</mxfile>
